<?xml version="1.0" encoding="utf-8"?>
<!-- Generator: Adobe Illustrator 22.0.0, SVG Export Plug-In . SVG Version: 6.00 Build 0)  -->
<svg version="1.1" id="Layer_1" xmlns="http://www.w3.org/2000/svg" xmlns:xlink="http://www.w3.org/1999/xlink" x="0px" y="0px"
	 viewBox="0 0 1027.9 139.6" style="enable-background:new 0 0 1027.9 139.6;" xml:space="preserve">
<style type="text/css">
	.st0{fill:#149409;}
	.st1{fill:#FFA246;}
</style>
<g>
	<g>
		<path class="st0" d="M483.1,47.3c0,6.4-5.2,11.6-11.6,11.6c-2,0-3.8-0.5-5.5-1.4c-3.7-2-6.1-5.8-6.1-10.2
			c0-6.4,5.2-11.6,11.6-11.6C477.9,35.7,483.1,40.9,483.1,47.3z"/>
		<path class="st1" d="M527.4,20.3c0,8.5-6.9,15.4-15.4,15.4c-2.6,0-5.1-0.7-7.3-1.8c-4.8-2.6-8.1-7.7-8.1-13.6
			c0-8.5,6.9-15.4,15.4-15.4C520.5,4.9,527.4,11.8,527.4,20.3z"/>
		<path class="st1" d="M540.8,20.3c0,4.1-3.3,7.4-7.4,7.4c-1.3,0-2.4-0.3-3.5-0.9c-2.3-1.2-3.9-3.7-3.9-6.5c0-4.1,3.3-7.4,7.4-7.4
			C537.5,12.9,540.8,16.2,540.8,20.3z"/>
		<path class="st0" d="M459.3,58.8c0,0,19.4-1.5,27.2,14.9c0,0,3.7,9.7-4.5,20.8c-8.2,11.1-3.6,17.7,3.3,21.8c0,0,1.7,1-2.3,1.3
			c0,0-32,4.5-39.7-24.3C435.7,64.4,456.8,58.7,459.3,58.8z"/>
		<polygon class="st0" points="465.2,59.1 472.6,61.2 473.3,58.3 466.1,56.6 		"/>
		<path class="st1" d="M516.5,35.7c0,0,2,1.1,1.5,2.1s-15,6.7-8.5,35.5c0,0,6.5,30.5-16.5,44.6c0,0-7.8,3.7-32.3,1.1
			c0,0-2.3,0.5,1.2,2.2c0,0,37.3,26,69.8,1.7s34.7-76.3,6-89c0,0-8.9-1.2-13.1,0.2l-1.3,0.2l-2-2.7l-5.3,3.6"/>
	</g>
	<g>
		<path class="st1" d="M85.3,129.2h-25L20,59h-0.6c0.8,12.4,1.2,21.2,1.2,26.5v43.7H3V36.4h24.8l40.3,69.5h0.4
			c-0.6-12.1-1-20.6-1-25.6V36.4h17.7V129.2z"/>
		<path class="st1" d="M156.2,129.2l-2.6-9.1h-1c-2.1,3.3-5,5.9-8.8,7.6c-3.8,1.8-8.1,2.7-13,2.7c-8.3,0-14.6-2.2-18.9-6.7
			c-4.2-4.5-6.3-10.9-6.3-19.3V58.2h19.4v41.5c0,5.1,0.9,9,2.7,11.5c1.8,2.6,4.7,3.8,8.7,3.8c5.4,0,9.3-1.8,11.7-5.4s3.6-9.6,3.6-18
			V58.2H171v71H156.2z"/>
		<path class="st1" d="M219.9,115c3.4,0,7.4-0.7,12.2-2.2v14.4c-4.8,2.2-10.7,3.2-17.8,3.2c-7.7,0-13.4-2-16.9-5.9
			c-3.5-3.9-5.3-9.8-5.3-17.6V72.7h-9.3v-8.2l10.7-6.5l5.6-15h12.4v15.1h19.9v14.5h-19.9v34.2c0,2.8,0.8,4.8,2.3,6.1
			C215.3,114.4,217.4,115,219.9,115z"/>
		<path class="st1" d="M284.8,56.9c2.6,0,4.8,0.2,6.5,0.6l-1.5,18.2c-1.6-0.4-3.5-0.6-5.7-0.6c-6.2,0-11,1.6-14.4,4.8
			c-3.4,3.2-5.2,7.6-5.2,13.3v36.1h-19.4v-71h14.7l2.9,11.9h1c2.2-4,5.2-7.2,8.9-9.6C276.3,58.1,280.4,56.9,284.8,56.9z"/>
		<path class="st1" d="M302.1,39.9c0-6.3,3.5-9.5,10.5-9.5c7,0,10.5,3.2,10.5,9.5c0,3-0.9,5.3-2.6,7c-1.8,1.7-4.4,2.5-7.9,2.5
			C305.6,49.4,302.1,46.2,302.1,39.9z M322.2,129.2h-19.4v-71h19.4V129.2z"/>
		<path class="st1" d="M371.2,115c3.4,0,7.4-0.7,12.2-2.2v14.4c-4.8,2.2-10.7,3.2-17.8,3.2c-7.7,0-13.4-2-16.9-5.9
			c-3.5-3.9-5.3-9.8-5.3-17.6V72.7h-9.3v-8.2l10.7-6.5l5.6-15h12.4v15.1h19.9v14.5h-19.9v34.2c0,2.8,0.8,4.8,2.3,6.1
			C366.6,114.4,368.6,115,371.2,115z"/>
		<path class="st1" d="M395.6,39.9c0-6.3,3.5-9.5,10.5-9.5c7,0,10.5,3.2,10.5,9.5c0,3-0.9,5.3-2.6,7c-1.8,1.7-4.4,2.5-7.9,2.5
			C399.1,49.4,395.6,46.2,395.6,39.9z M415.7,129.2h-19.4v-71h19.4V129.2z"/>
	</g>
	<g>
		<path class="st1" d="M645,129.6h-19.4V88.1c0-5.1-0.9-9-2.7-11.5c-1.8-2.6-4.7-3.8-8.7-3.8c-5.4,0-9.3,1.8-11.7,5.4
			c-2.4,3.6-3.6,9.6-3.6,18v33.4h-19.4v-71h14.8l2.6,9.1h1.1c2.2-3.4,5.1-6,8.9-7.8c3.8-1.8,8.1-2.6,12.9-2.6
			c8.3,0,14.5,2.2,18.8,6.7c4.3,4.5,6.4,10.9,6.4,19.3V129.6z"/>
		<path class="st0" d="M665.2,129.6V36.7h19.7v92.8H665.2z"/>
		<path class="st0" d="M789.2,129.6h-25l-40.4-70.2h-0.6c0.8,12.4,1.2,21.2,1.2,26.5v43.7h-17.6V36.7h24.8l40.3,69.5h0.4
			c-0.6-12.1-1-20.6-1-25.6V36.7h17.7V129.6z"/>
		<path class="st0" d="M888.3,82.3c0,15.3-4.3,27-13,35.1c-8.7,8.1-21.3,12.2-37.7,12.2h-26.3V36.7h29.1c15.1,0,26.9,4,35.3,12
			S888.3,67.9,888.3,82.3z M867.8,82.8c0-19.9-8.8-29.9-26.4-29.9H831v60.4h8.4C858.4,113.3,867.8,103.1,867.8,82.8z"/>
		<path class="st0" d="M906.2,129.6V36.7h19.7v92.8H906.2z"/>
		<path class="st0" d="M1004.8,129.6l-6.7-22.1h-33.8l-6.7,22.1h-21.2L969,36.4h24.1l32.9,93.2H1004.8z M993.3,91
			c-6.2-20-9.7-31.3-10.5-34c-0.8-2.6-1.3-4.7-1.7-6.2c-1.4,5.4-5.4,18.8-12,40.2H993.3z"/>
	</g>
</g>
</svg>
